<svg width="264" height="264" viewBox="0 0 264 264" fill="none" xmlns="http://www.w3.org/2000/svg">
<g clip-path="url(#clip0_103_2)">
<path d="M131.559 264C199.528 264 254.628 250.498 254.628 233.842C254.628 217.186 199.528 203.684 131.559 203.684C63.5893 203.684 8.48926 217.186 8.48926 233.842C8.48926 250.498 63.5893 264 131.559 264Z" fill="#C8AD7F" fill-opacity="0.66"/>
<path d="M206.836 93.4684H56.2939V131.101H206.836V93.4684Z" fill="#E1CFAF"/>
<path d="M188.013 109.601L204.146 93.4684H209.513V131.097H204.146L188.013 109.601Z" fill="#C8AD7F"/>
<path d="M188.013 109.601V131.101H204.146L188.013 109.601Z" fill="#C8AD7F" fill-opacity="0.42"/>
<path d="M75.0997 109.601L58.9875 93.4684H53.6044V131.097H58.9875L75.0997 109.601Z" fill="#C8AD7F"/>
<path d="M75.0997 109.601V131.101H58.9875L75.0997 109.601Z" fill="#C8AD7F" fill-opacity="0.42"/>
<path d="M199.456 238.627H63.657C58.1047 238.627 53.6044 234.123 53.6044 228.574V131.101H209.513V228.574C209.513 234.123 205.013 238.627 199.456 238.627Z" fill="#C8AD7F"/>
<path d="M107.365 152.613C107.365 157.064 103.756 160.669 99.3094 160.669C94.842 160.669 91.2326 157.059 91.2326 152.613C91.2326 148.145 94.842 144.54 99.3094 144.54C103.756 144.54 107.365 148.149 107.365 152.613Z" fill="#1E1E1E"/>
<path d="M171.88 152.613C171.88 157.064 168.271 160.669 163.824 160.669C159.361 160.669 155.752 157.059 155.752 152.613C155.752 148.145 159.365 144.54 163.824 144.54C168.271 144.54 171.88 148.149 171.88 152.613Z" fill="#1E1E1E"/>
<path d="M131.559 203.688C112.291 203.688 96.6199 188.001 96.6199 168.733V152.617C96.6199 151.119 97.812 149.927 99.3094 149.927C100.79 149.927 101.982 151.119 101.982 152.617V168.733C101.982 185.052 115.257 198.305 131.554 198.305C147.856 198.305 161.127 185.047 161.127 168.733V152.617C161.127 151.119 162.331 149.927 163.816 149.927C165.297 149.927 166.51 151.119 166.51 152.617V168.733C166.514 188.001 150.826 203.688 131.559 203.688Z" fill="#F5F5F5"/>
<path d="M131.625 40.0042C130.61 40.0042 129.785 40.8292 129.785 41.844V73.1486C129.785 74.1634 130.61 74.9884 131.625 74.9884C132.639 74.9884 133.464 74.1634 133.464 73.1486V41.844C133.464 40.8292 132.639 40.0042 131.625 40.0042Z" fill="#F5F5F5"/>
<path d="M88.2997 53.9468C87.582 54.6645 87.582 55.8278 88.2997 56.5455L103.125 71.3749C103.843 72.0926 105.006 72.0926 105.724 71.3749C106.441 70.6571 106.441 69.4939 105.724 68.7761L90.8985 53.9509C90.1807 53.229 89.0175 53.229 88.2997 53.9468Z" fill="#F5F5F5"/>
<path d="M174.813 53.8436C175.531 54.5614 175.531 55.7246 174.813 56.4424L159.988 71.2676C159.27 71.9854 158.107 71.9854 157.389 71.2676C156.672 70.5499 156.672 69.3866 157.389 68.6689L172.215 53.8436C172.932 53.1259 174.096 53.1259 174.813 53.8436Z" fill="#F5F5F5"/>
<path d="M66.8951 70.4055C68.2985 70.4055 69.4361 69.2679 69.4361 67.8645C69.4361 66.4611 68.2985 65.3235 66.8951 65.3235C65.4918 65.3235 64.3541 66.4611 64.3541 67.8645C64.3541 69.2679 65.4918 70.4055 66.8951 70.4055Z" fill="#F5F5F5"/>
<path d="M193.537 77.1293C194.94 77.1293 196.078 75.9916 196.078 74.5883C196.078 73.1849 194.94 72.0472 193.537 72.0472C192.133 72.0472 190.996 73.1849 190.996 74.5883C190.996 75.9916 192.133 77.1293 193.537 77.1293Z" fill="#F5F5F5"/>
<path d="M74.9925 13.3279C74.1964 13.3279 73.5488 13.9755 73.5488 14.7716V24.1766C73.5488 24.9727 74.1964 25.6204 74.9925 25.6204C75.7886 25.6204 76.4363 24.9727 76.4363 24.1766V14.7716C76.4363 13.9755 75.7886 13.3279 74.9925 13.3279Z" fill="#F5F5F5"/>
<path d="M81.2501 19.5855C81.2501 18.7894 80.6025 18.1417 79.8064 18.1417H70.4014C69.6052 18.1417 68.9576 18.7894 68.9576 19.5855C68.9576 20.3816 69.6052 21.0292 70.4014 21.0292H79.8064C80.6025 21.0292 81.2501 20.3816 81.2501 19.5855Z" fill="#F5F5F5"/>
<path d="M181.756 31.878C180.96 31.878 180.312 32.5256 180.312 33.3217V42.7267C180.312 43.5229 180.96 44.1705 181.756 44.1705C182.552 44.1705 183.199 43.5229 183.199 42.7267V33.3217C183.199 32.5215 182.552 31.878 181.756 31.878Z" fill="#F5F5F5"/>
<path d="M188.013 38.1315C188.013 37.3354 187.366 36.6877 186.57 36.6877H177.165C176.369 36.6877 175.721 37.3354 175.721 38.1315C175.721 38.9276 176.369 39.5752 177.165 39.5752H186.57C187.366 39.5752 188.013 38.9317 188.013 38.1315Z" fill="#F5F5F5"/>
<path d="M160.227 9.042C157.756 9.042 155.748 7.03312 155.748 4.56225C155.748 2.09137 157.756 0.0824966 160.227 0.0824966C162.698 0.0824966 164.707 2.09137 164.707 4.56225C164.707 7.029 162.698 9.042 160.227 9.042ZM160.227 2.59875C159.147 2.59875 158.268 3.47737 158.268 4.55812C158.268 5.63887 159.147 6.5175 160.227 6.5175C161.308 6.5175 162.187 5.63887 162.187 4.55812C162.187 3.4815 161.308 2.59875 160.227 2.59875Z" fill="#F5F5F5"/>
<path d="M108.504 36.3578C106.033 36.3578 104.024 34.3489 104.024 31.878C104.024 29.4071 106.033 27.3983 108.504 27.3983C110.975 27.3983 112.984 29.4071 112.984 31.878C112.984 34.3448 110.975 36.3578 108.504 36.3578ZM108.504 29.9145C107.423 29.9145 106.545 30.7931 106.545 31.8739C106.545 32.9546 107.423 33.8333 108.504 33.8333C109.585 33.8333 110.463 32.9546 110.463 31.8739C110.463 30.7973 109.585 29.9145 108.504 29.9145Z" fill="#F5F5F5"/>
</g>
<defs>
<clipPath id="clip0_103_2">
<rect width="264" height="264" fill="white"/>
</clipPath>
</defs>
</svg>
