<svg width="192" height="122" viewBox="0 0 192 122" fill="none" xmlns="http://www.w3.org/2000/svg">
<path d="M44.752 92.16C38.5227 92.16 32.8053 90.8373 27.6 88.192C22.3947 85.5467 17.872 82.0053 14.032 77.568C10.192 73.1307 7.20533 68.1813 5.072 62.72C3.024 57.2587 2 51.712 2 46.08C2 40.1067 3.024 34.3893 5.072 28.928C7.12 23.3813 9.97867 18.432 13.648 14.08C17.4027 9.728 21.7973 6.31467 26.832 3.84C31.952 1.28 37.5413 0 43.6 0C52.816 0 60.1547 1.87733 65.616 5.632C71.1627 9.30134 75.3867 14.0373 78.288 19.84L74.448 21.76C71.2053 15.5307 66.9387 11.0507 61.648 8.32C56.3573 5.58933 50.2987 4.224 43.472 4.224C37.84 4.224 32.72 5.41867 28.112 7.808C23.5893 10.112 19.7067 13.2693 16.464 17.28C13.2213 21.2907 10.7467 25.8133 9.04 30.848C7.33333 35.7973 6.48 40.8747 6.48 46.08C6.48 51.6267 7.46133 56.9173 9.424 61.952C11.3867 66.9867 14.1173 71.4667 17.616 75.392C21.2 79.3173 25.296 82.3893 29.904 84.608C34.5973 86.8267 39.632 87.936 45.008 87.936C51.0667 87.936 56.8267 86.4853 62.288 83.584C67.7493 80.5973 72.9973 75.904 78.032 69.504V74.88C68.6453 86.4 57.552 92.16 44.752 92.16ZM76.496 51.712H55.504V47.872H80.592V91.52H76.496V51.712Z" fill="black"/>
<path d="M184.043 92V9.97183L150.357 74.4408H147.643L113.957 9.97183V92H110V1H113.617L149 68.6732L184.383 1H188V92H184.043Z" fill="black"/>
<path d="M10.8882 119.115C9.76891 119.115 8.74157 118.877 7.80624 118.402C6.87091 117.927 6.05824 117.29 5.36824 116.493C4.67824 115.696 4.14157 114.806 3.75824 113.825C3.39024 112.844 3.20624 111.847 3.20624 110.835C3.20624 109.762 3.39024 108.734 3.75824 107.753C4.12624 106.756 4.63991 105.867 5.29924 105.085C5.97391 104.303 6.76357 103.69 7.66824 103.245C8.58824 102.785 9.59257 102.555 10.6812 102.555C12.3372 102.555 13.6559 102.892 14.6372 103.567C15.6339 104.226 16.3929 105.077 16.9142 106.12L16.2242 106.465C15.6416 105.346 14.8749 104.541 13.9242 104.05C12.9736 103.559 11.8849 103.314 10.6582 103.314C9.64624 103.314 8.72624 103.529 7.89824 103.958C7.08557 104.372 6.38791 104.939 5.80524 105.66C5.22257 106.381 4.77791 107.193 4.47124 108.098C4.16457 108.987 4.01124 109.9 4.01124 110.835C4.01124 111.832 4.18757 112.782 4.54024 113.687C4.89291 114.592 5.38357 115.397 6.01224 116.102C6.65624 116.807 7.39224 117.359 8.22024 117.758C9.06357 118.157 9.96824 118.356 10.9342 118.356C12.0229 118.356 13.0579 118.095 14.0392 117.574C15.0206 117.037 15.9636 116.194 16.8682 115.044V116.01C15.1816 118.08 13.1882 119.115 10.8882 119.115ZM16.5922 111.847H12.8202V111.157H17.3282V119H16.5922V111.847ZM30.5705 119.23C29.7732 119.23 29.0142 119.069 28.2935 118.747C27.5882 118.41 26.9672 117.957 26.4305 117.39C25.9092 116.807 25.4952 116.14 25.1885 115.389C24.8972 114.622 24.7515 113.81 24.7515 112.951C24.7515 111.832 25.0045 110.812 25.5105 109.892C26.0165 108.972 26.6988 108.236 27.5575 107.684C28.4315 107.132 29.4052 106.856 30.4785 106.856C31.5825 106.856 32.5638 107.14 33.4225 107.707C34.2965 108.259 34.9942 109.003 35.5155 109.938C36.0368 110.858 36.2975 111.885 36.2975 113.02C36.2975 113.081 36.2975 113.143 36.2975 113.204C36.2975 113.265 36.2898 113.327 36.2745 113.388H25.5565C25.6332 114.354 25.9015 115.228 26.3615 116.01C26.8368 116.792 27.4425 117.413 28.1785 117.873C28.9298 118.333 29.7425 118.563 30.6165 118.563C31.4905 118.563 32.3108 118.341 33.0775 117.896C33.8442 117.436 34.3885 116.853 34.7105 116.148L35.4235 116.332C35.1935 116.884 34.8332 117.382 34.3425 117.827C33.8518 118.272 33.2768 118.617 32.6175 118.862C31.9735 119.107 31.2912 119.23 30.5705 119.23ZM25.5335 112.721H35.5155C35.4542 111.709 35.1935 110.82 34.7335 110.053C34.2888 109.271 33.6985 108.658 32.9625 108.213C32.2265 107.768 31.4062 107.546 30.5015 107.546C29.6122 107.546 28.7995 107.768 28.0635 108.213C27.3428 108.658 26.7525 109.271 26.2925 110.053C25.8478 110.835 25.5948 111.724 25.5335 112.721ZM53.5038 119H52.7218V112.33C52.7218 110.705 52.4842 109.509 52.0088 108.742C51.5488 107.975 50.8128 107.592 49.8008 107.592C49.0802 107.592 48.3748 107.768 47.6848 108.121C46.9948 108.458 46.3892 108.926 45.8678 109.524C45.3618 110.107 44.9938 110.774 44.7638 111.525V119H43.9818V107.04H44.7408V110.03C45.0628 109.401 45.4922 108.849 46.0288 108.374C46.5808 107.899 47.1942 107.531 47.8688 107.27C48.5435 106.994 49.2335 106.856 49.9388 106.856C50.5675 106.856 51.1042 106.971 51.5488 107.201C52.0088 107.431 52.3768 107.768 52.6528 108.213C52.9442 108.658 53.1588 109.217 53.2968 109.892C53.4348 110.567 53.5038 111.349 53.5038 112.238V119ZM67.0147 118.448C66.984 118.463 66.8614 118.532 66.6467 118.655C66.432 118.762 66.156 118.87 65.8187 118.977C65.4967 119.069 65.121 119.115 64.6917 119.115C64.293 119.115 63.925 119.038 63.5877 118.885C63.2504 118.732 62.982 118.509 62.7827 118.218C62.5834 117.911 62.4837 117.551 62.4837 117.137V107.73H60.7817V107.04H62.4837V102.923H63.2657V107.04H66.0947V107.73H63.2657V117.022C63.2964 117.467 63.465 117.804 63.7717 118.034C64.0784 118.264 64.431 118.379 64.8297 118.379C65.3357 118.379 65.765 118.295 66.1177 118.126C66.4857 117.942 66.685 117.835 66.7157 117.804L67.0147 118.448ZM74.2744 102.21H75.0794V116.953C75.0794 117.444 75.2021 117.812 75.4474 118.057C75.7081 118.287 76.0454 118.402 76.4594 118.402C76.6588 118.402 76.8811 118.379 77.1264 118.333C77.3871 118.287 77.6171 118.233 77.8164 118.172L78.0004 118.816C77.7704 118.893 77.4791 118.962 77.1264 119.023C76.7891 119.084 76.4978 119.115 76.2524 119.115C75.6698 119.115 75.1944 118.939 74.8264 118.586C74.4584 118.218 74.2744 117.727 74.2744 117.114V102.21ZM89.8925 119.23C89.0952 119.23 88.3362 119.069 87.6155 118.747C86.9102 118.41 86.2892 117.957 85.7525 117.39C85.2312 116.807 84.8172 116.14 84.5105 115.389C84.2192 114.622 84.0735 113.81 84.0735 112.951C84.0735 111.832 84.3265 110.812 84.8325 109.892C85.3385 108.972 86.0209 108.236 86.8795 107.684C87.7535 107.132 88.7272 106.856 89.8005 106.856C90.9045 106.856 91.8859 107.14 92.7445 107.707C93.6185 108.259 94.3162 109.003 94.8375 109.938C95.3589 110.858 95.6195 111.885 95.6195 113.02C95.6195 113.081 95.6195 113.143 95.6195 113.204C95.6195 113.265 95.6119 113.327 95.5965 113.388H84.8785C84.9552 114.354 85.2235 115.228 85.6835 116.01C86.1589 116.792 86.7645 117.413 87.5005 117.873C88.2519 118.333 89.0645 118.563 89.9385 118.563C90.8125 118.563 91.6329 118.341 92.3995 117.896C93.1662 117.436 93.7105 116.853 94.0325 116.148L94.7455 116.332C94.5155 116.884 94.1552 117.382 93.6645 117.827C93.1739 118.272 92.5989 118.617 91.9395 118.862C91.2955 119.107 90.6132 119.23 89.8925 119.23ZM84.8555 112.721H94.8375C94.7762 111.709 94.5155 110.82 94.0555 110.053C93.6109 109.271 93.0205 108.658 92.2845 108.213C91.5485 107.768 90.7282 107.546 89.8235 107.546C88.9342 107.546 88.1215 107.768 87.3855 108.213C86.6649 108.658 86.0745 109.271 85.6145 110.053C85.1699 110.835 84.9169 111.724 84.8555 112.721ZM129.726 119V104.28L122.872 115.849H122.32L115.466 104.28V119H114.661V102.67H115.397L122.596 114.814L129.795 102.67H130.531V119H129.726ZM144.4 119.23C143.603 119.23 142.851 119.069 142.146 118.747C141.441 118.425 140.827 117.98 140.306 117.413C139.785 116.83 139.378 116.171 139.087 115.435C138.796 114.684 138.65 113.894 138.65 113.066C138.65 112.223 138.796 111.425 139.087 110.674C139.394 109.923 139.808 109.263 140.329 108.696C140.85 108.113 141.464 107.661 142.169 107.339C142.874 107.017 143.618 106.856 144.4 106.856C145.197 106.856 145.941 107.017 146.631 107.339C147.336 107.661 147.95 108.113 148.471 108.696C149.008 109.263 149.422 109.923 149.713 110.674C150.02 111.425 150.173 112.223 150.173 113.066C150.173 113.894 150.027 114.684 149.736 115.435C149.445 116.171 149.031 116.83 148.494 117.413C147.973 117.98 147.359 118.425 146.654 118.747C145.964 119.069 145.213 119.23 144.4 119.23ZM139.432 113.089C139.432 114.086 139.654 114.998 140.099 115.826C140.544 116.639 141.142 117.29 141.893 117.781C142.644 118.256 143.472 118.494 144.377 118.494C145.297 118.494 146.133 118.249 146.884 117.758C147.635 117.267 148.233 116.608 148.678 115.78C149.138 114.937 149.368 114.024 149.368 113.043C149.368 112.046 149.138 111.134 148.678 110.306C148.233 109.478 147.635 108.819 146.884 108.328C146.133 107.837 145.305 107.592 144.4 107.592C143.511 107.592 142.683 107.845 141.916 108.351C141.165 108.842 140.559 109.509 140.099 110.352C139.654 111.18 139.432 112.092 139.432 113.089ZM161.45 119L156.344 107.04H157.195L161.841 118.08L166.51 107.04H167.338L162.232 119H161.45ZM179.363 119.23C178.566 119.23 177.807 119.069 177.086 118.747C176.381 118.41 175.76 117.957 175.223 117.39C174.702 116.807 174.288 116.14 173.981 115.389C173.69 114.622 173.544 113.81 173.544 112.951C173.544 111.832 173.797 110.812 174.303 109.892C174.809 108.972 175.492 108.236 176.35 107.684C177.224 107.132 178.198 106.856 179.271 106.856C180.375 106.856 181.357 107.14 182.215 107.707C183.089 108.259 183.787 109.003 184.308 109.938C184.83 110.858 185.09 111.885 185.09 113.02C185.09 113.081 185.09 113.143 185.09 113.204C185.09 113.265 185.083 113.327 185.067 113.388H174.349C174.426 114.354 174.694 115.228 175.154 116.01C175.63 116.792 176.235 117.413 176.971 117.873C177.723 118.333 178.535 118.563 179.409 118.563C180.283 118.563 181.104 118.341 181.87 117.896C182.637 117.436 183.181 116.853 183.503 116.148L184.216 116.332C183.986 116.884 183.626 117.382 183.135 117.827C182.645 118.272 182.07 118.617 181.41 118.862C180.766 119.107 180.084 119.23 179.363 119.23ZM174.326 112.721H184.308C184.247 111.709 183.986 110.82 183.526 110.053C183.082 109.271 182.491 108.658 181.755 108.213C181.019 107.768 180.199 107.546 179.294 107.546C178.405 107.546 177.592 107.768 176.856 108.213C176.136 108.658 175.545 109.271 175.085 110.053C174.641 110.835 174.388 111.724 174.326 112.721Z" fill="black"/>
</svg>
